<svg width="164" height="202" viewBox="0 0 164 202" fill="none" xmlns="http://www.w3.org/2000/svg">
<path d="M82.4786 26C124.327 26.3297 157.855 58.7204 158 102.269C158.131 142.188 125.523 177.86 80.5805 176.984C39.5865 176.185 6.10233 142.793 7.01836 99.1926C7.82821 60.684 39.2461 26.3981 82.4786 26ZM66.5765 112.918C69.2608 112.918 71.9464 112.924 74.6308 112.915C75.9142 112.911 76.7182 113.201 76.4192 114.81C75.7609 118.349 75.2218 121.909 74.6437 125.46C73.5543 132.155 72.4684 138.851 71.386 145.547C71.2822 146.185 70.949 146.867 71.7712 147.308C73.1703 148.056 76.9972 147.103 77.7882 145.782C87.8196 129.042 97.8463 112.3 107.867 95.5533C109.949 92.0702 108.857 90.1869 104.773 90.1562C100.075 90.1232 95.3761 90.1232 90.6774 90.1562C89.2181 90.165 88.2266 89.9722 88.5782 88.0628C89.6263 82.3832 90.5836 76.6871 91.5439 70.9916C92.2946 66.5323 93.014 62.0679 93.7021 57.5985C93.8047 56.932 94.2106 56.1062 93.1241 55.711C91.9925 55.3824 90.7868 55.4134 89.6737 55.7997C88.5605 56.186 87.5948 56.9086 86.9101 57.8675C79.1932 70.7189 71.4824 83.574 63.7777 96.4327C61.4525 100.312 59.0572 104.151 56.8417 108.093C55.1813 111.045 56.2713 112.873 59.5302 112.909C61.8784 112.934 64.2283 112.914 66.5776 112.919L66.5771 112.918H66.5765Z" fill="#1D5FE6"/>
</svg>
